<?xml version="1.0" encoding="UTF-8" standalone="no"?>
<!DOCTYPE svg PUBLIC "-//W3C//DTD SVG 1.1//EN"
 "http://www.w3.org/Graphics/SVG/1.1/DTD/svg11.dtd">
<!-- Generated by graphviz version 9.0.0 (20230911.1827)
 -->
<!-- Title: dependency&#45;cruiser output Pages: 1 -->
<svg width="497pt" height="359pt"
 viewBox="0.00 0.00 496.50 359.08" xmlns="http://www.w3.org/2000/svg" xmlns:xlink="http://www.w3.org/1999/xlink">
<g id="graph0" class="graph" transform="scale(1 1) rotate(0) translate(4 355.08)">
<title>dependency&#45;cruiser output</title>
<polygon fill="white" stroke="none" points="-4,4 -4,-355.08 492.5,-355.08 492.5,4 -4,4"/>
<g id="clust1" class="cluster">
<title>cluster_node_modules</title>
<path fill="#ffffff" stroke="black" stroke-width="2" d="M418.5,-100.08C418.5,-100.08 473.5,-100.08 473.5,-100.08 479.5,-100.08 485.5,-106.08 485.5,-112.08 485.5,-112.08 485.5,-140.08 485.5,-140.08 485.5,-146.08 479.5,-152.08 473.5,-152.08 473.5,-152.08 418.5,-152.08 418.5,-152.08 412.5,-152.08 406.5,-146.08 406.5,-140.08 406.5,-140.08 406.5,-112.08 406.5,-112.08 406.5,-106.08 412.5,-100.08 418.5,-100.08"/>
<text text-anchor="middle" x="446" y="-139.53" font-family="Helvetica,sans-Serif" font-weight="bold" font-size="9.00">node_modules</text>
</g>
<g id="clust2" class="cluster">
<title>cluster_src</title>
<path fill="#ffffff" stroke="black" stroke-width="2" d="M20,-63.08C20,-63.08 386.5,-63.08 386.5,-63.08 392.5,-63.08 398.5,-69.08 398.5,-75.08 398.5,-75.08 398.5,-331.08 398.5,-331.08 398.5,-337.08 392.5,-343.08 386.5,-343.08 386.5,-343.08 20,-343.08 20,-343.08 14,-343.08 8,-337.08 8,-331.08 8,-331.08 8,-75.08 8,-75.08 8,-69.08 14,-63.08 20,-63.08"/>
<text text-anchor="middle" x="203.25" y="-330.53" font-family="Helvetica,sans-Serif" font-weight="bold" font-size="9.00">src</text>
</g>
<g id="clust3" class="cluster">
<title>cluster_src/components</title>
<path fill="#ffffff" stroke="black" stroke-width="2" d="M157,-71.08C157,-71.08 300.5,-71.08 300.5,-71.08 306.5,-71.08 312.5,-77.08 312.5,-83.08 312.5,-83.08 312.5,-295.08 312.5,-295.08 312.5,-301.08 306.5,-307.08 300.5,-307.08 300.5,-307.08 157,-307.08 157,-307.08 151,-307.08 145,-301.08 145,-295.08 145,-295.08 145,-83.08 145,-83.08 145,-77.08 151,-71.08 157,-71.08"/>
<text text-anchor="middle" x="228.75" y="-294.53" font-family="Helvetica,sans-Serif" font-weight="bold" font-size="9.00">components</text>
</g>
<g id="clust4" class="cluster">
<title>cluster_src/components/ui</title>
<path fill="#ffffff" stroke="black" stroke-width="2" d="M165,-79.08C165,-79.08 292.5,-79.08 292.5,-79.08 298.5,-79.08 304.5,-85.08 304.5,-91.08 304.5,-91.08 304.5,-269.08 304.5,-269.08 304.5,-275.08 298.5,-281.08 292.5,-281.08 292.5,-281.08 165,-281.08 165,-281.08 159,-281.08 153,-275.08 153,-269.08 153,-269.08 153,-91.08 153,-91.08 153,-85.08 159,-79.08 165,-79.08"/>
<text text-anchor="middle" x="228.75" y="-268.53" font-family="Helvetica,sans-Serif" font-weight="bold" font-size="9.00">ui</text>
</g>
<g id="clust5" class="cluster">
<title>cluster_src/lib</title>
<path fill="#ffffff" stroke="black" stroke-width="2" d="M332.5,-243.08C332.5,-243.08 378.5,-243.08 378.5,-243.08 384.5,-243.08 390.5,-249.08 390.5,-255.08 390.5,-255.08 390.5,-283.08 390.5,-283.08 390.5,-289.08 384.5,-295.08 378.5,-295.08 378.5,-295.08 332.5,-295.08 332.5,-295.08 326.5,-295.08 320.5,-289.08 320.5,-283.08 320.5,-283.08 320.5,-255.08 320.5,-255.08 320.5,-249.08 326.5,-243.08 332.5,-243.08"/>
<text text-anchor="middle" x="355.5" y="-282.53" font-family="Helvetica,sans-Serif" font-weight="bold" font-size="9.00">lib</text>
</g>
<!-- node_modules/.pnpm -->
<g id="node1" class="node">
<title>node_modules/.pnpm</title>
<g id="a_node1"><a xlink:href="node_modules/.pnpm" xlink:title=".pnpm">
<polygon fill="#c40b0a" fill-opacity="0.101961" stroke="black" points="472.5,-125.96 420.47,-125.96 418.5,-123.98 418.5,-108.21 470.53,-108.21 472.5,-110.18 472.5,-125.96"/>
<polyline fill="none" stroke="black" points="470.53,-123.98 418.5,-123.98"/>
<polyline fill="none" stroke="black" points="470.53,-123.98 470.53,-108.21"/>
<polyline fill="none" stroke="black" points="470.53,-123.98 472.5,-125.96"/>
<text text-anchor="start" x="432.75" y="-113.41" font-family="Helvetica,sans-Serif" font-size="9.00" fill="#c40b0a">.pnpm</text>
</a>
</g>
</g>
<!-- src/App.tsx -->
<g id="node2" class="node">
<title>src/App.tsx</title>
<g id="a_node2"><a xlink:href="src/App.tsx" xlink:title="App.tsx">
<path fill="#bbfeff" stroke="black" d="M131.08,-164.96C131.08,-164.96 88.92,-164.96 88.92,-164.96 85.96,-164.96 83,-162 83,-159.04 83,-159.04 83,-153.12 83,-153.12 83,-150.17 85.96,-147.21 88.92,-147.21 88.92,-147.21 131.08,-147.21 131.08,-147.21 134.04,-147.21 137,-150.17 137,-153.12 137,-153.12 137,-159.04 137,-159.04 137,-162 134.04,-164.96 131.08,-164.96"/>
<text text-anchor="start" x="95" y="-152.41" font-family="Helvetica,sans-Serif" font-size="9.00">App.tsx</text>
</a>
</g>
</g>
<!-- src/App.tsx&#45;&gt;node_modules/.pnpm -->
<g id="edge8" class="edge">
<title>src/App.tsx&#45;&gt;node_modules/.pnpm</title>
<path fill="none" stroke="#000000" stroke-opacity="0.200000" d="M112.17,-146.78C114.79,-129.94 122.78,-94.44 145,-76.08 179.17,-47.85 198.45,-60.06 242.5,-55.08 311.4,-47.3 336.69,-22.68 398.5,-54.08 417.8,-63.89 430.93,-86.01 438.07,-101.24"/>
<polygon fill="#000000" fill-opacity="0.200000" stroke="#000000" stroke-opacity="0.200000" points="436.14,-102.06 440.49,-106.7 439.98,-100.36 436.14,-102.06"/>
</g>
<!-- src/components/ui/button.tsx -->
<g id="node3" class="node">
<title>src/components/ui/button.tsx</title>
<g id="a_node3"><a xlink:href="src/components/ui/button.tsx" xlink:title="button.tsx">
<path fill="#bbfeff" stroke="black" d="M216.83,-254.96C216.83,-254.96 173.67,-254.96 173.67,-254.96 170.71,-254.96 167.75,-252 167.75,-249.04 167.75,-249.04 167.75,-243.12 167.75,-243.12 167.75,-240.17 170.71,-237.21 173.67,-237.21 173.67,-237.21 216.83,-237.21 216.83,-237.21 219.79,-237.21 222.75,-240.17 222.75,-243.12 222.75,-243.12 222.75,-249.04 222.75,-249.04 222.75,-252 219.79,-254.96 216.83,-254.96"/>
<text text-anchor="start" x="175.75" y="-242.41" font-family="Helvetica,sans-Serif" font-size="9.00">button.tsx</text>
</a>
</g>
</g>
<!-- src/App.tsx&#45;&gt;src/components/ui/button.tsx -->
<g id="edge1" class="edge">
<title>src/App.tsx&#45;&gt;src/components/ui/button.tsx</title>
<path fill="none" stroke="#000000" stroke-width="2" stroke-opacity="0.200000" d="M112.65,-165.39C115.93,-181.21 124.8,-213.35 145,-231.08 149,-234.59 153.81,-237.29 158.83,-239.35"/>
<polygon fill="#000000" fill-opacity="0.200000" stroke="#000000" stroke-width="2" stroke-opacity="0.200000" points="158.15,-241.33 164.51,-241.28 159.5,-237.36 158.15,-241.33"/>
</g>
<!-- src/components/ui/form.tsx -->
<g id="node4" class="node">
<title>src/components/ui/form.tsx</title>
<g id="a_node4"><a xlink:href="src/components/ui/form.tsx" xlink:title="form.tsx">
<path fill="#bbfeff" stroke="black" d="M216.33,-134.96C216.33,-134.96 174.17,-134.96 174.17,-134.96 171.21,-134.96 168.25,-132 168.25,-129.04 168.25,-129.04 168.25,-123.12 168.25,-123.12 168.25,-120.17 171.21,-117.21 174.17,-117.21 174.17,-117.21 216.33,-117.21 216.33,-117.21 219.29,-117.21 222.25,-120.17 222.25,-123.12 222.25,-123.12 222.25,-129.04 222.25,-129.04 222.25,-132 219.29,-134.96 216.33,-134.96"/>
<text text-anchor="start" x="179.5" y="-122.41" font-family="Helvetica,sans-Serif" font-size="9.00">form.tsx</text>
</a>
</g>
</g>
<!-- src/App.tsx&#45;&gt;src/components/ui/form.tsx -->
<g id="edge2" class="edge">
<title>src/App.tsx&#45;&gt;src/components/ui/form.tsx</title>
<path fill="none" stroke="#000000" stroke-width="2" stroke-opacity="0.200000" d="M130.97,-146.79C135.54,-144.8 140.4,-142.79 145,-141.08 149.72,-139.33 154.76,-137.62 159.73,-136.02"/>
<polygon fill="#000000" fill-opacity="0.200000" stroke="#000000" stroke-width="2" stroke-opacity="0.200000" points="159.99,-138.14 165.09,-134.35 158.74,-134.13 159.99,-138.14"/>
</g>
<!-- src/components/ui/input.tsx -->
<g id="node5" class="node">
<title>src/components/ui/input.tsx</title>
<g id="a_node5"><a xlink:href="src/components/ui/input.tsx" xlink:title="input.tsx">
<path fill="#bbfeff" stroke="black" d="M216.33,-224.96C216.33,-224.96 174.17,-224.96 174.17,-224.96 171.21,-224.96 168.25,-222 168.25,-219.04 168.25,-219.04 168.25,-213.12 168.25,-213.12 168.25,-210.17 171.21,-207.21 174.17,-207.21 174.17,-207.21 216.33,-207.21 216.33,-207.21 219.29,-207.21 222.25,-210.17 222.25,-213.12 222.25,-213.12 222.25,-219.04 222.25,-219.04 222.25,-222 219.29,-224.96 216.33,-224.96"/>
<text text-anchor="start" x="178.38" y="-212.41" font-family="Helvetica,sans-Serif" font-size="9.00">input.tsx</text>
</a>
</g>
</g>
<!-- src/App.tsx&#45;&gt;src/components/ui/input.tsx -->
<g id="edge3" class="edge">
<title>src/App.tsx&#45;&gt;src/components/ui/input.tsx</title>
<path fill="none" stroke="#000000" stroke-width="2" stroke-opacity="0.200000" d="M115.71,-165.41C121.33,-175.62 131.67,-191.77 145,-201.08 149.32,-204.1 154.26,-206.52 159.31,-208.46"/>
<polygon fill="#000000" fill-opacity="0.200000" stroke="#000000" stroke-width="2" stroke-opacity="0.200000" points="158.58,-210.44 164.94,-210.34 159.91,-206.45 158.58,-210.44"/>
</g>
<!-- src/components/ui/select.tsx -->
<g id="node6" class="node">
<title>src/components/ui/select.tsx</title>
<g id="a_node6"><a xlink:href="src/components/ui/select.tsx" xlink:title="select.tsx">
<path fill="#bbfeff" stroke="black" d="M216.33,-164.96C216.33,-164.96 174.17,-164.96 174.17,-164.96 171.21,-164.96 168.25,-162 168.25,-159.04 168.25,-159.04 168.25,-153.12 168.25,-153.12 168.25,-150.17 171.21,-147.21 174.17,-147.21 174.17,-147.21 216.33,-147.21 216.33,-147.21 219.29,-147.21 222.25,-150.17 222.25,-153.12 222.25,-153.12 222.25,-159.04 222.25,-159.04 222.25,-162 219.29,-164.96 216.33,-164.96"/>
<text text-anchor="start" x="176.5" y="-152.41" font-family="Helvetica,sans-Serif" font-size="9.00">select.tsx</text>
</a>
</g>
</g>
<!-- src/App.tsx&#45;&gt;src/components/ui/select.tsx -->
<g id="edge4" class="edge">
<title>src/App.tsx&#45;&gt;src/components/ui/select.tsx</title>
<path fill="none" stroke="#000000" stroke-width="2" stroke-opacity="0.200000" d="M137.34,-156.08C144.17,-156.08 151.64,-156.08 158.86,-156.08"/>
<polygon fill="#000000" fill-opacity="0.200000" stroke="#000000" stroke-width="2" stroke-opacity="0.200000" points="158.77,-158.18 164.77,-156.08 158.77,-153.98 158.77,-158.18"/>
</g>
<!-- src/components/ui/separator.tsx -->
<g id="node7" class="node">
<title>src/components/ui/separator.tsx</title>
<g id="a_node7"><a xlink:href="src/components/ui/separator.tsx" xlink:title="separator.tsx">
<path fill="#bbfeff" stroke="black" d="M223.58,-104.96C223.58,-104.96 166.92,-104.96 166.92,-104.96 163.96,-104.96 161,-102 161,-99.04 161,-99.04 161,-93.12 161,-93.12 161,-90.17 163.96,-87.21 166.92,-87.21 166.92,-87.21 223.58,-87.21 223.58,-87.21 226.54,-87.21 229.5,-90.17 229.5,-93.12 229.5,-93.12 229.5,-99.04 229.5,-99.04 229.5,-102 226.54,-104.96 223.58,-104.96"/>
<text text-anchor="start" x="169" y="-92.41" font-family="Helvetica,sans-Serif" font-size="9.00">separator.tsx</text>
</a>
</g>
</g>
<!-- src/App.tsx&#45;&gt;src/components/ui/separator.tsx -->
<g id="edge5" class="edge">
<title>src/App.tsx&#45;&gt;src/components/ui/separator.tsx</title>
<path fill="none" stroke="#000000" stroke-width="2" stroke-opacity="0.200000" d="M115.71,-146.76C121.33,-136.55 131.67,-120.39 145,-111.08 147.34,-109.44 149.87,-107.98 152.5,-106.68"/>
<polygon fill="#000000" fill-opacity="0.200000" stroke="#000000" stroke-width="2" stroke-opacity="0.200000" points="153.13,-108.69 157.83,-104.4 151.48,-104.83 153.13,-108.69"/>
</g>
<!-- src/components/ui/textarea.tsx -->
<g id="node8" class="node">
<title>src/components/ui/textarea.tsx</title>
<g id="a_node8"><a xlink:href="src/components/ui/textarea.tsx" xlink:title="textarea.tsx">
<path fill="#bbfeff" stroke="black" d="M220.58,-194.96C220.58,-194.96 169.92,-194.96 169.92,-194.96 166.96,-194.96 164,-192 164,-189.04 164,-189.04 164,-183.12 164,-183.12 164,-180.17 166.96,-177.21 169.92,-177.21 169.92,-177.21 220.58,-177.21 220.58,-177.21 223.54,-177.21 226.5,-180.17 226.5,-183.12 226.5,-183.12 226.5,-189.04 226.5,-189.04 226.5,-192 223.54,-194.96 220.58,-194.96"/>
<text text-anchor="start" x="172" y="-182.41" font-family="Helvetica,sans-Serif" font-size="9.00">textarea.tsx</text>
</a>
</g>
</g>
<!-- src/App.tsx&#45;&gt;src/components/ui/textarea.tsx -->
<g id="edge6" class="edge">
<title>src/App.tsx&#45;&gt;src/components/ui/textarea.tsx</title>
<path fill="none" stroke="#000000" stroke-width="2" stroke-opacity="0.200000" d="M130.97,-165.37C135.54,-167.36 140.4,-169.37 145,-171.08 148.25,-172.29 151.65,-173.48 155.08,-174.62"/>
<polygon fill="#000000" fill-opacity="0.200000" stroke="#000000" stroke-width="2" stroke-opacity="0.200000" points="154.35,-176.59 160.7,-176.44 155.64,-172.59 154.35,-176.59"/>
</g>
<!-- src/lib/utils.ts -->
<g id="node9" class="node">
<title>src/lib/utils.ts</title>
<g id="a_node9"><a xlink:href="src/lib/utils.ts" xlink:title="utils.ts">
<path fill="#ddfeff" stroke="black" d="M376.58,-268.96C376.58,-268.96 334.42,-268.96 334.42,-268.96 331.46,-268.96 328.5,-266 328.5,-263.04 328.5,-263.04 328.5,-257.12 328.5,-257.12 328.5,-254.17 331.46,-251.21 334.42,-251.21 334.42,-251.21 376.58,-251.21 376.58,-251.21 379.54,-251.21 382.5,-254.17 382.5,-257.12 382.5,-257.12 382.5,-263.04 382.5,-263.04 382.5,-266 379.54,-268.96 376.58,-268.96"/>
<text text-anchor="start" x="342.75" y="-256.41" font-family="Helvetica,sans-Serif" font-size="9.00">utils.ts</text>
</a>
</g>
</g>
<!-- src/App.tsx&#45;&gt;src/lib/utils.ts -->
<g id="edge7" class="edge">
<title>src/App.tsx&#45;&gt;src/lib/utils.ts</title>
<path fill="none" stroke="#000000" stroke-width="2" stroke-opacity="0.200000" d="M110.39,-165.16C109.34,-188.7 110.08,-252.08 145,-284.08 200.16,-334.64 243.2,-329.3 312.5,-301.08 324.86,-296.05 335.57,-285.43 343.08,-276.26"/>
<polygon fill="#000000" fill-opacity="0.200000" stroke="#000000" stroke-width="2" stroke-opacity="0.200000" points="344.55,-277.79 346.54,-271.76 341.22,-275.23 344.55,-277.79"/>
</g>
<!-- src/components/ui/button.tsx&#45;&gt;node_modules/.pnpm -->
<g id="edge10" class="edge">
<title>src/components/ui/button.tsx&#45;&gt;node_modules/.pnpm</title>
<path fill="none" stroke="#000000" stroke-opacity="0.200000" d="M222.34,-236.88C224.98,-235.23 227.44,-233.31 229.5,-231.08 241.06,-218.6 230.12,-206.75 242.5,-195.08 255.65,-182.69 382.21,-156.9 398.5,-149.08 408.71,-144.19 419.14,-137.13 427.48,-130.89"/>
<polygon fill="#000000" fill-opacity="0.200000" stroke="#000000" stroke-opacity="0.200000" points="428.74,-132.57 432.21,-127.25 426.18,-129.24 428.74,-132.57"/>
</g>
<!-- src/components/ui/button.tsx&#45;&gt;src/lib/utils.ts -->
<g id="edge9" class="edge">
<title>src/components/ui/button.tsx&#45;&gt;src/lib/utils.ts</title>
<path fill="none" stroke="#000000" stroke-width="2" stroke-opacity="0.200000" d="M223.24,-254.29C225.52,-255.66 227.66,-257.24 229.5,-259.08 240.66,-270.21 229.47,-283.21 242.5,-292.08 268.22,-309.59 283.02,-302.03 312.5,-292.08 322.61,-288.67 332.21,-281.75 339.67,-275.21"/>
<polygon fill="#000000" fill-opacity="0.200000" stroke="#000000" stroke-width="2" stroke-opacity="0.200000" points="340.7,-277.12 343.66,-271.49 337.84,-274.05 340.7,-277.12"/>
</g>
<!-- src/components/ui/form.tsx&#45;&gt;node_modules/.pnpm -->
<g id="edge13" class="edge">
<title>src/components/ui/form.tsx&#45;&gt;node_modules/.pnpm</title>
<path fill="none" stroke="#000000" stroke-opacity="0.200000" d="M220.68,-116.77C223.79,-115.1 226.82,-113.21 229.5,-111.08 236.95,-105.17 233.97,-98.3 242.5,-94.08 304.66,-63.37 331.02,-78.15 398.5,-94.08 407.33,-96.17 416.39,-100.22 424.11,-104.34"/>
<polygon fill="#000000" fill-opacity="0.200000" stroke="#000000" stroke-opacity="0.200000" points="422.67,-105.94 428.93,-107.05 424.72,-102.28 422.67,-105.94"/>
</g>
<!-- src/components/ui/form.tsx&#45;&gt;src/lib/utils.ts -->
<g id="edge12" class="edge">
<title>src/components/ui/form.tsx&#45;&gt;src/lib/utils.ts</title>
<path fill="none" stroke="#000000" stroke-width="2" stroke-opacity="0.200000" d="M222.51,-134.66C225.18,-136.43 227.61,-138.55 229.5,-141.08 255,-175.23 213.52,-204.84 242.5,-236.08 242.5,-236.08 286.86,-245.59 319.74,-252.63"/>
<polygon fill="#000000" fill-opacity="0.200000" stroke="#000000" stroke-width="2" stroke-opacity="0.200000" points="318.97,-254.62 325.28,-253.82 319.85,-250.51 318.97,-254.62"/>
</g>
<!-- src/components/ui/label.tsx -->
<g id="node10" class="node">
<title>src/components/ui/label.tsx</title>
<g id="a_node10"><a xlink:href="src/components/ui/label.tsx" xlink:title="label.tsx">
<path fill="#bbfeff" stroke="black" d="M290.58,-218.96C290.58,-218.96 248.42,-218.96 248.42,-218.96 245.46,-218.96 242.5,-216 242.5,-213.04 242.5,-213.04 242.5,-207.12 242.5,-207.12 242.5,-204.17 245.46,-201.21 248.42,-201.21 248.42,-201.21 290.58,-201.21 290.58,-201.21 293.54,-201.21 296.5,-204.17 296.5,-207.12 296.5,-207.12 296.5,-213.04 296.5,-213.04 296.5,-216 293.54,-218.96 290.58,-218.96"/>
<text text-anchor="start" x="252.62" y="-206.41" font-family="Helvetica,sans-Serif" font-size="9.00">label.tsx</text>
</a>
</g>
</g>
<!-- src/components/ui/form.tsx&#45;&gt;src/components/ui/label.tsx -->
<g id="edge11" class="edge">
<title>src/components/ui/form.tsx&#45;&gt;src/components/ui/label.tsx</title>
<path fill="none" stroke="#000000" stroke-width="2" stroke-opacity="0.200000" d="M221.65,-135.44C224.47,-137.07 227.16,-138.95 229.5,-141.08 245.13,-155.35 256.06,-177.38 262.29,-192.7"/>
<polygon fill="#000000" fill-opacity="0.200000" stroke="#000000" stroke-width="2" stroke-opacity="0.200000" points="260.22,-193.16 264.33,-198 264.14,-191.65 260.22,-193.16"/>
</g>
<!-- src/components/ui/input.tsx&#45;&gt;node_modules/.pnpm -->
<g id="edge15" class="edge">
<title>src/components/ui/input.tsx&#45;&gt;node_modules/.pnpm</title>
<path fill="none" stroke="#000000" stroke-opacity="0.200000" d="M222.18,-206.73C224.84,-205.11 227.35,-203.23 229.5,-201.08 239.48,-191.08 231.7,-181.18 242.5,-172.08 269.87,-149.02 364.14,-142.08 398.5,-132.08 402.63,-130.88 406.96,-129.56 411.23,-128.21"/>
<polygon fill="#000000" fill-opacity="0.200000" stroke="#000000" stroke-opacity="0.200000" points="411.8,-130.23 416.88,-126.4 410.52,-126.23 411.8,-130.23"/>
</g>
<!-- src/components/ui/input.tsx&#45;&gt;src/lib/utils.ts -->
<g id="edge14" class="edge">
<title>src/components/ui/input.tsx&#45;&gt;src/lib/utils.ts</title>
<path fill="none" stroke="#000000" stroke-width="2" stroke-opacity="0.200000" d="M222.51,-225.13C225.12,-226.8 227.52,-228.77 229.5,-231.08 243.6,-247.54 225.25,-264.96 242.5,-278.08 267.99,-297.48 306.29,-284.97 330.84,-273.26"/>
<polygon fill="#000000" fill-opacity="0.200000" stroke="#000000" stroke-width="2" stroke-opacity="0.200000" points="331.47,-275.29 335.89,-270.73 329.59,-271.54 331.47,-275.29"/>
</g>
<!-- src/components/ui/select.tsx&#45;&gt;node_modules/.pnpm -->
<g id="edge19" class="edge">
<title>src/components/ui/select.tsx&#45;&gt;node_modules/.pnpm</title>
<path fill="none" stroke="#000000" stroke-opacity="0.200000" d="M221.23,-146.82C224.18,-145.16 227.02,-143.25 229.5,-141.08 237.75,-133.84 232.95,-125.49 242.5,-120.08 295.18,-90.22 368.67,-99.27 410.95,-108.33"/>
<polygon fill="#000000" fill-opacity="0.200000" stroke="#000000" stroke-opacity="0.200000" points="410.42,-110.36 416.74,-109.62 411.34,-106.27 410.42,-110.36"/>
</g>
<!-- src/components/ui/select.tsx&#45;&gt;src/lib/utils.ts -->
<g id="edge18" class="edge">
<title>src/components/ui/select.tsx&#45;&gt;src/lib/utils.ts</title>
<path fill="none" stroke="#000000" stroke-width="2" stroke-opacity="0.200000" d="M222.44,-164.71C225.13,-166.47 227.57,-168.57 229.5,-171.08 251.18,-199.3 216.42,-225.87 242.5,-250.08 253.34,-260.15 290.62,-261.8 319.22,-261.47"/>
<polygon fill="#000000" fill-opacity="0.200000" stroke="#000000" stroke-width="2" stroke-opacity="0.200000" points="319.17,-263.57 325.13,-261.36 319.09,-259.37 319.17,-263.57"/>
</g>
<!-- src/components/ui/separator.tsx&#45;&gt;node_modules/.pnpm -->
<g id="edge21" class="edge">
<title>src/components/ui/separator.tsx&#45;&gt;node_modules/.pnpm</title>
<path fill="none" stroke="#000000" stroke-opacity="0.200000" d="M210.59,-86.79C219.4,-81.64 231.15,-75.75 242.5,-73.08 310,-57.23 334.15,-47.26 398.5,-73.08 413.08,-78.93 425.64,-91.84 433.94,-102.18"/>
<polygon fill="#000000" fill-opacity="0.200000" stroke="#000000" stroke-opacity="0.200000" points="432.08,-103.2 437.4,-106.69 435.42,-100.65 432.08,-103.2"/>
</g>
<!-- src/components/ui/separator.tsx&#45;&gt;src/lib/utils.ts -->
<g id="edge20" class="edge">
<title>src/components/ui/separator.tsx&#45;&gt;src/lib/utils.ts</title>
<path fill="none" stroke="#000000" stroke-width="2" stroke-opacity="0.200000" d="M223.51,-105.27C225.8,-106.91 227.86,-108.83 229.5,-111.08 259.55,-152.28 207.47,-188.02 242.5,-225.08 264.18,-248.02 282.69,-226.69 312.5,-237.08 319.34,-239.47 326.4,-242.9 332.73,-246.38"/>
<polygon fill="#000000" fill-opacity="0.200000" stroke="#000000" stroke-width="2" stroke-opacity="0.200000" points="331.41,-248.05 337.66,-249.23 333.52,-244.41 331.41,-248.05"/>
</g>
<!-- src/components/ui/textarea.tsx&#45;&gt;node_modules/.pnpm -->
<g id="edge23" class="edge">
<title>src/components/ui/textarea.tsx&#45;&gt;node_modules/.pnpm</title>
<path fill="none" stroke="#000000" stroke-opacity="0.200000" d="M221.72,-176.8C224.53,-175.16 227.2,-173.26 229.5,-171.08 238.6,-162.48 232.29,-153.33 242.5,-146.08 268.89,-127.37 360.43,-120.59 410.73,-118.25"/>
<polygon fill="#000000" fill-opacity="0.200000" stroke="#000000" stroke-opacity="0.200000" points="410.73,-120.35 416.63,-117.99 410.54,-116.16 410.73,-120.35"/>
</g>
<!-- src/components/ui/textarea.tsx&#45;&gt;src/lib/utils.ts -->
<g id="edge22" class="edge">
<title>src/components/ui/textarea.tsx&#45;&gt;src/lib/utils.ts</title>
<path fill="none" stroke="#000000" stroke-width="2" stroke-opacity="0.200000" d="M223.31,-195.43C225.63,-197.04 227.76,-198.91 229.5,-201.08 247.37,-223.4 220.34,-246.02 242.5,-264.08 264.26,-281.81 297.07,-278.29 321.56,-271.83"/>
<polygon fill="#000000" fill-opacity="0.200000" stroke="#000000" stroke-width="2" stroke-opacity="0.200000" points="322.08,-273.87 327.26,-270.19 320.92,-269.83 322.08,-273.87"/>
</g>
<!-- src/lib/utils.ts&#45;&gt;node_modules/.pnpm -->
<g id="edge24" class="edge">
<title>src/lib/utils.ts&#45;&gt;node_modules/.pnpm</title>
<path fill="none" stroke="#000000" stroke-opacity="0.200000" d="M368,-250.95C377.17,-243.21 389.85,-231.44 398.5,-219.08 417.84,-191.44 432.11,-154.36 439.29,-133.37"/>
<polygon fill="#000000" fill-opacity="0.200000" stroke="#000000" stroke-opacity="0.200000" points="441.22,-134.2 441.13,-127.85 437.24,-132.87 441.22,-134.2"/>
</g>
<!-- src/components/ui/label.tsx&#45;&gt;node_modules/.pnpm -->
<g id="edge17" class="edge">
<title>src/components/ui/label.tsx&#45;&gt;node_modules/.pnpm</title>
<path fill="none" stroke="#000000" stroke-opacity="0.200000" d="M296.79,-212.62C324.38,-213.95 367.91,-212.13 398.5,-192.08 419.74,-178.16 432.79,-150.69 439.33,-133.14"/>
<polygon fill="#000000" fill-opacity="0.200000" stroke="#000000" stroke-opacity="0.200000" points="441.23,-134.08 441.24,-127.72 437.27,-132.68 441.23,-134.08"/>
</g>
<!-- src/components/ui/label.tsx&#45;&gt;src/lib/utils.ts -->
<g id="edge16" class="edge">
<title>src/components/ui/label.tsx&#45;&gt;src/lib/utils.ts</title>
<path fill="none" stroke="#000000" stroke-width="2" stroke-opacity="0.200000" d="M294.99,-219.37C300.86,-221.93 307.02,-224.88 312.5,-228.08 321.05,-233.07 329.86,-239.54 337.19,-245.36"/>
<polygon fill="#000000" fill-opacity="0.200000" stroke="#000000" stroke-width="2" stroke-opacity="0.200000" points="335.64,-246.81 341.62,-248.97 338.3,-243.55 335.64,-246.81"/>
</g>
<!-- src/main.tsx -->
<g id="node11" class="node">
<title>src/main.tsx</title>
<g id="a_node11"><a xlink:href="src/main.tsx" xlink:title="main.tsx">
<path fill="#bbfeff" stroke="black" d="M64.08,-126.96C64.08,-126.96 21.92,-126.96 21.92,-126.96 18.96,-126.96 16,-124 16,-121.04 16,-121.04 16,-115.12 16,-115.12 16,-112.17 18.96,-109.21 21.92,-109.21 21.92,-109.21 64.08,-109.21 64.08,-109.21 67.04,-109.21 70,-112.17 70,-115.12 70,-115.12 70,-121.04 70,-121.04 70,-124 67.04,-126.96 64.08,-126.96"/>
<text text-anchor="start" x="26.12" y="-114.41" font-family="Helvetica,sans-Serif" font-size="9.00">main.tsx</text>
</a>
</g>
</g>
<!-- src/main.tsx&#45;&gt;node_modules/.pnpm -->
<g id="edge26" class="edge">
<title>src/main.tsx&#45;&gt;node_modules/.pnpm</title>
<path fill="none" stroke="#000000" stroke-opacity="0.200000" d="M49.56,-108.82C67.04,-81.01 123.93,-0.08 194.25,-0.08 194.25,-0.08 194.25,-0.08 270.5,-0.08 329.48,-0.08 352.03,1.23 398.5,-35.08 420.3,-52.12 433.4,-82.54 439.76,-101.16"/>
<polygon fill="#000000" fill-opacity="0.200000" stroke="#000000" stroke-opacity="0.200000" points="437.63,-101.39 441.48,-106.45 441.62,-100.09 437.63,-101.39"/>
</g>
<!-- src/main.tsx&#45;&gt;src/App.tsx -->
<g id="edge25" class="edge">
<title>src/main.tsx&#45;&gt;src/App.tsx</title>
<path fill="none" stroke="#000000" stroke-width="2" stroke-opacity="0.200000" d="M59.73,-127.28C67.56,-131.85 77.17,-137.47 85.82,-142.53"/>
<polygon fill="#000000" fill-opacity="0.200000" stroke="#000000" stroke-width="2" stroke-opacity="0.200000" points="84.56,-144.22 90.8,-145.44 86.68,-140.6 84.56,-144.22"/>
</g>
</g>
</svg>
