<svg class="img-fluid" id="outputsvg" xmlns="http://www.w3.org/2000/svg" style="transform: none; transform-origin: 50% 50%; cursor: move;" width="512" height="512" viewBox="0 0 5120 5120"><g id="l6tf97sYx7hiNxZaUvHJoXE" fill="rgb(225,190,103)" style="transform: none;"><g><path id="p9jzWG5cF" d="M 0 2560 l 0 -2560 2560 0 2560 0 0 2560 0 2560 -2560 0 -2560 0 0 -2560 z  m 3543 2023 c 4 -3 2 -12 -4 -20 -8 -9 -41 -13 -116 -13 -99 0 -106 -1 -124 -24 -18 -23 -231 -136 -257 -136 -7 0 -12 -15 -12 -40 0 -44 20 -120 32 -120 5 0 8 -40 8 -89 0 -49 3 -91 8 -93 9 -4 72 -85 72 -93 0 -4 14 -26 30 -50 17 -24 30 -48 30 -54 0 -6 9 -26 20 -46 11 -20 20 -44 20 -55 0 -11 5 -20 10 -20 6 0 10 -12 10 -26 0 -29 21 -54 44 -54 9 0 16 -4 16 -10 0 -5 8 -10 18 -10 11 0 27 -9 37 -20 10 -11 23 -20 29 -20 15 0 104 -93 144 -152 49 -70 92 -157 92 -183 0 -13 5 -27 10 -30 6 -3 10 -25 10 -49 0 -23 5 -47 11 -53 16 -16 1 -208 -21 -258 -4 -11 -14 -41 -21 -67 -8 -27 -17 -48 -21 -48 -4 0 -8 -9 -8 -20 0 -11 -4 -20 -10 -20 -5 0 -10 -8 -11 -17 0 -10 -16 -38 -35 -63 -18 -25 -41 -56 -51 -70 -30 -45 -67 -81 -99 -96 -17 -8 -36 -25 -41 -37 -19 -42 -33 -94 -33 -125 0 -17 -4 -34 -10 -37 -5 -3 -10 -14 -10 -24 0 -38 -61 -130 -131 -197 -52 -49 -89 -72 -89 -55 0 14 -92 101 -106 101 -8 0 -14 5 -14 10 0 6 -9 10 -19 10 -11 0 -23 5 -26 10 -4 6 -58 10 -131 10 l -124 0 0 -39 c 0 -33 4 -40 23 -43 19 -3 22 -8 19 -43 -2 -22 -8 -44 -13 -49 -5 -6 -9 -23 -9 -38 0 -15 -4 -28 -10 -28 -5 0 -10 -13 -10 -29 0 -17 -5 -33 -10 -36 -6 -3 -10 -19 -10 -35 0 -16 -4 -32 -10 -35 -5 -3 -10 -19 -10 -34 0 -40 -17 -51 -81 -51 -74 0 -119 -33 -119 -85 0 -19 -4 -37 -10 -40 -5 -3 -10 -28 -10 -56 0 -78 -8 -85 -101 -81 l -79 4 0 -34 c 0 -28 10 -43 58 -89 91 -89 147 -118 267 -142 82 -15 241 -20 265 -7 31 16 50 -4 50 -51 0 -22 5 -39 10 -39 6 0 10 -4 10 -10 0 -5 -16 -10 -36 -10 -19 0 -44 -5 -55 -11 -25 -13 -290 -14 -316 -1 -10 5 -36 15 -58 22 -59 18 -95 34 -95 42 0 5 -8 8 -18 8 -11 0 -27 9 -37 20 -10 12 -33 30 -51 41 -49 30 -154 184 -154 226 0 7 -4 13 -10 13 -5 0 -10 18 -10 40 0 22 -4 40 -10 40 -6 0 -10 30 -10 70 0 40 4 70 10 70 6 0 10 11 10 25 0 30 16 68 52 122 22 33 28 53 28 97 0 49 -3 57 -29 75 -16 12 -36 21 -44 21 -21 0 -138 62 -167 88 -14 13 -36 29 -50 37 -28 15 -131 142 -172 213 -48 83 -90 173 -109 237 -6 22 -15 48 -20 57 -5 10 -9 34 -9 53 0 19 -4 35 -9 35 -5 0 -12 30 -16 68 -10 98 -17 1431 -8 1447 7 11 20 7 68 -18 l 60 -32 3 -268 c 2 -216 5 -272 16 -283 20 -20 92 -18 100 2 3 9 6 139 6 290 0 176 4 274 10 274 6 0 10 -4 10 -10 0 -5 8 -10 18 -11 9 0 31 -8 47 -18 l 30 -18 3 -168 c 2 -120 6 -171 15 -177 19 -12 82 -9 95 4 8 8 12 45 12 100 0 92 8 106 36 63 13 -20 25 -25 55 -25 29 0 41 5 46 18 3 9 13 25 21 34 11 14 13 32 8 80 -3 34 -11 67 -16 72 -12 12 -13 116 -1 116 14 0 24 151 16 250 l -7 90 -279 0 c -272 0 -279 0 -279 20 0 20 7 20 973 20 536 0 977 -3 980 -7 z  m -548 -2703 c 3 -5 26 -10 51 -10 24 0 44 -4 44 -10 0 -5 15 -10 34 -10 44 0 58 -17 46 -56 -19 -56 -22 -64 -31 -64 -5 0 -9 -6 -9 -13 0 -7 -13 -39 -29 -72 -15 -33 -37 -80 -47 -104 -17 -39 -19 -41 -24 -20 -9 36 -74 67 -142 68 -33 1 -58 -3 -58 -9 0 -22 -16 -7 -37 35 -24 48 -32 148 -13 160 6 4 29 -9 50 -29 40 -36 41 -36 132 -36 80 0 95 3 115 22 16 15 23 33 23 60 0 38 0 38 -39 38 -22 0 -43 5 -46 10 -3 6 -17 10 -30 10 -28 0 -75 20 -75 32 0 12 78 10 85 -2 z  m -1075 -568 c 6 -2 10 -17 10 -33 0 -16 5 -29 10 -29 6 0 10 -6 10 -13 0 -38 84 -163 143 -212 79 -67 114 -92 145 -106 17 -7 32 -17 32 -21 0 -5 11 -8 24 -8 14 0 28 -5 31 -10 3 -5 19 -10 35 -10 15 0 30 -5 32 -11 5 -14 353 -15 371 -1 20 16 87 20 87 5 0 -7 3 -13 8 -13 4 0 14 -15 21 -32 16 -37 59 -95 110 -150 32 -35 33 -38 14 -38 -12 0 -25 -4 -28 -10 -3 -5 -17 -10 -30 -10 -13 0 -27 -4 -30 -10 -3 -5 -21 -10 -39 -10 -17 0 -37 -5 -43 -11 -16 -16 -350 -16 -366 0 -6 6 -23 11 -37 11 -14 0 -38 6 -53 13 -27 12 -27 13 -27 120 l 0 108 -37 -3 c -34 -3 -38 -6 -53 -50 -20 -58 -30 -70 -30 -35 0 14 5 29 10 32 6 3 10 31 10 61 l 0 54 -39 0 c -39 0 -40 -1 -72 -70 -19 -38 -36 -70 -39 -70 -3 0 -35 30 -70 66 -40 40 -60 68 -52 71 6 3 12 13 12 24 0 10 3 19 8 19 14 0 32 54 32 97 l 0 43 -43 0 c -31 0 -49 -6 -62 -20 -10 -11 -21 -20 -24 -20 -8 0 -31 74 -31 99 0 11 -5 21 -11 23 -8 3 -11 54 -11 158 0 104 3 155 11 158 6 2 11 17 11 32 0 16 5 32 10 35 6 3 11 18 11 33 1 15 6 -36 11 -113 5 -77 13 -141 18 -143 z  m 798 146 c 7 -7 12 -18 12 -26 0 -8 10 -23 22 -33 11 -11 19 -21 17 -23 -9 -9 -174 -10 -172 -1 2 6 18 11 38 13 34 3 35 5 35 43 0 31 4 39 18 39 10 0 23 -5 30 -12 z  m 267 -93 c 0 -30 0 -55 -1 -55 0 0 -15 7 -33 16 -19 10 -28 20 -24 27 6 10 55 67 57 67 1 0 1 -25 1 -55 z "></path><path id="pDnEOK8hI" d="M 2290 4473 c 0 -32 6 -41 35 -60 36 -24 125 -33 125 -13 0 6 9 10 20 10 11 0 20 4 20 9 0 5 9 11 20 14 15 4 20 14 20 41 l 0 36 -120 0 -120 0 0 -37 z "></path><path id="pex3XgIYN" d="M 2870 4473 c 0 -32 6 -42 33 -60 45 -31 100 -30 165 3 47 24 52 29 52 60 l 0 34 -125 0 -125 0 0 -37 z "></path><path id="p62xVlLo1" d="M 2565 4436 c -92 -48 -100 -55 -103 -84 -2 -20 7 -52 23 -84 15 -29 31 -61 36 -70 5 -10 9 -44 9 -75 0 -57 2 -59 56 -115 59 -61 99 -75 130 -44 16 17 20 126 4 126 -13 0 -13 117 0 122 12 4 26 214 16 252 -10 40 -54 33 -171 -28 z "></path><path id="p8qbTs9ww" d="M 2222 4258 c -7 -7 -12 -44 -12 -95 0 -79 2 -85 27 -107 l 27 -24 -29 -42 c -55 -79 -64 -95 -64 -117 -1 -12 -5 -25 -11 -28 -6 -4 -10 -58 -10 -128 0 -149 8 -167 76 -167 l 44 0 0 79 c 0 57 4 82 15 91 11 9 17 9 27 -2 23 -25 38 -57 38 -83 0 -22 4 -25 39 -25 39 0 40 0 47 45 3 25 4 59 2 77 -6 41 23 78 46 58 18 -14 46 -67 46 -87 0 -9 13 -13 40 -13 33 0 40 3 40 20 0 11 5 20 10 20 6 0 10 37 10 90 0 53 -4 90 -10 90 -5 0 -10 6 -10 13 0 17 -89 107 -106 107 -8 0 -14 5 -14 10 0 6 -6 10 -14 10 -21 0 -96 52 -90 62 3 4 23 8 45 8 l 39 0 0 50 c 0 27 -5 61 -12 75 -11 25 -13 25 -118 25 -69 0 -110 -4 -118 -12 z "></path><path id="pEPksc5CY" d="M 2790 4184 c 0 -77 2 -88 23 -104 l 22 -18 -22 -24 c -16 -17 -23 -37 -23 -66 l 0 -41 103 1 c 63 1 110 -3 124 -10 12 -7 38 -12 57 -12 34 0 36 2 36 35 0 27 -8 42 -37 70 -21 19 -42 35 -48 35 -5 0 -26 14 -45 30 l -35 29 43 1 42 0 0 50 c 0 28 -4 50 -10 50 -5 0 -10 14 -10 30 l 0 30 -110 0 -110 0 0 -86 z "></path><path id="p10GmMfJfr" d="M 3040 3580 c -8 -5 -28 -10 -45 -10 -16 0 -50 -7 -75 -16 -65 -22 -190 -85 -190 -95 0 -5 -6 -9 -13 -9 -7 0 -43 -27 -80 -61 l -67 -61 0 -54 c 0 -31 5 -64 10 -74 7 -13 7 -21 0 -25 -5 -3 -10 -21 -10 -39 0 -34 -20 -86 -32 -86 -5 0 -8 -7 -8 -15 0 -8 -12 -29 -27 -45 -23 -27 -47 -40 -163 -94 -14 -6 -44 -30 -67 -53 -42 -42 -43 -44 -43 -111 0 -62 3 -71 28 -95 38 -37 87 -36 127 1 25 23 108 72 121 72 2 0 4 -13 4 -30 0 -29 2 -30 44 -30 25 0 48 -4 51 -10 3 -5 17 -10 31 -10 65 0 193 -107 194 -162 0 -26 -12 -22 -50 17 -55 57 -80 65 -199 65 -90 0 -110 -3 -131 -20 -14 -11 -30 -20 -37 -20 -10 0 -29 -20 -75 -80 -13 -18 -20 -20 -36 -11 -12 6 -32 11 -47 11 -28 0 -105 22 -105 30 0 3 14 11 30 17 25 9 30 17 30 45 0 25 -11 44 -46 81 -25 26 -52 47 -60 47 -7 0 -14 5 -14 10 0 6 -22 10 -48 10 -50 0 -72 12 -72 41 0 10 -6 20 -12 23 -10 4 -9 7 2 15 8 5 37 25 65 43 72 48 125 122 125 176 0 23 -4 42 -10 42 -5 0 -10 9 -10 20 0 11 -3 20 -7 20 -9 0 -33 49 -33 67 0 7 -4 13 -10 13 -5 0 -10 14 -10 31 0 77 -59 93 -143 39 -26 -16 -51 -30 -55 -30 -11 0 -126 -120 -145 -152 -10 -16 -17 -48 -17 -77 0 -27 -4 -52 -9 -55 -5 -3 -18 -26 -30 -51 -22 -47 -29 -139 -11 -150 5 -3 10 -22 10 -41 0 -19 4 -34 9 -34 5 0 11 -13 14 -28 3 -16 27 -51 54 -80 l 48 -51 -3 -80 c -2 -53 0 -81 7 -81 6 0 11 -18 11 -40 0 -22 5 -40 10 -40 6 0 10 -6 10 -14 0 -21 137 -146 160 -146 11 0 20 -4 20 -10 0 -6 38 -10 93 -10 102 0 132 10 237 79 30 20 68 42 83 50 15 8 27 18 27 23 0 4 9 8 20 8 11 0 20 5 20 10 0 6 9 10 20 10 11 0 20 5 20 10 0 6 9 10 20 10 11 0 20 5 20 10 0 6 9 10 19 10 11 0 23 5 26 10 3 6 17 10 31 10 13 0 24 4 24 9 0 13 62 23 188 28 75 3 112 1 112 -6 0 -6 11 -11 24 -11 14 0 51 -13 83 -30 40 -21 72 -30 104 -30 43 0 47 2 59 33 6 17 16 40 21 49 5 10 9 31 9 47 0 28 -3 30 -40 33 -48 4 -54 19 -11 33 17 5 31 13 31 17 0 4 9 8 20 8 11 0 20 5 20 10 0 6 6 10 13 10 7 0 23 9 35 20 12 11 25 20 29 20 10 0 113 100 113 110 0 4 11 20 25 36 14 16 25 35 25 42 0 6 5 12 10 12 6 0 10 7 10 15 0 8 5 24 10 35 6 11 15 29 20 40 6 11 10 31 10 45 0 14 5 25 10 25 6 0 10 60 10 159 l 0 158 -42 47 c -22 26 -51 52 -62 57 -12 5 -39 21 -61 34 -22 14 -50 25 -62 25 -12 0 -25 5 -28 10 -4 6 -53 10 -116 10 -60 0 -109 3 -109 6 0 15 37 33 68 34 18 0 43 5 54 11 14 8 23 8 31 0 6 -6 21 -11 33 -11 30 0 106 -33 123 -54 8 -9 28 -16 47 -16 32 0 34 2 34 33 0 34 -36 94 -76 128 -39 33 -116 69 -149 69 -18 0 -37 5 -40 10 -8 13 -195 13 -215 0 z  m 265 -502 c 33 -15 35 -60 3 -82 -20 -14 -24 -14 -40 1 -21 19 -23 45 -6 73 15 24 11 23 43 8 z "></path><path id="pWdJ1eKdN" d="M 2198 3373 c -16 -8 -33 -24 -40 -36 -17 -30 -17 -219 0 -225 6 -2 12 -14 12 -26 0 -29 79 -106 127 -122 53 -19 87 -17 129 7 57 32 64 43 64 103 l 0 56 -48 0 c -27 0 -57 -7 -70 -16 -19 -13 -22 -13 -22 0 0 30 54 56 119 56 l 61 0 0 35 c 0 19 -5 47 -12 62 -15 35 -78 103 -95 103 -7 0 -13 5 -13 10 0 16 -180 10 -212 -7 z "></path><path id="p16NzqaRgK" d="M 2268 2008 l -78 -41 0 -58 c 0 -33 4 -59 10 -59 6 0 10 -6 10 -13 0 -28 36 -47 88 -47 51 0 52 1 52 30 0 17 5 30 10 30 6 0 10 9 10 20 0 10 14 42 30 70 17 28 30 64 30 80 0 29 -2 30 -42 29 -29 -1 -68 -14 -120 -41 z "></path><path id="p50ZsEJBs" d="M 2531 1989 c -18 -11 -35 -29 -38 -40 -3 -10 -9 -19 -14 -19 -5 0 -9 -36 -9 -80 l 0 -80 56 0 c 61 0 83 15 84 58 0 12 5 22 10 22 6 0 10 14 10 30 0 17 5 30 10 30 6 0 10 23 10 50 l 0 50 -42 0 c -26 0 -57 -8 -77 -21 z "></path><path id="p13RLUBuVG" d="M 2199 1734 c -14 -7 -31 -26 -38 -41 -7 -15 -17 -36 -22 -45 -14 -27 -10 -79 9 -118 26 -53 74 -80 143 -80 l 59 0 0 70 0 70 -28 0 c -34 0 -43 7 -35 26 3 8 18 14 34 14 29 0 29 0 29 60 l 0 60 -62 -1 c -35 -1 -75 -7 -89 -15 z "></path></g></g><g id="l6nLh6RvEnimbfgDaY2tQez" fill="rgb(4,1,0)" style="transform: none;"><g><path id="p1HrCpMPs6" d="M 1553 4594 c -9 -19 -9 -32 -1 -50 l 11 -24 277 0 277 0 7 -74 c 7 -82 -2 -206 -15 -206 -12 0 -12 -163 0 -175 18 -20 22 -82 6 -95 -8 -7 -15 -18 -15 -26 0 -30 -22 -22 -72 26 -29 27 -56 50 -60 50 -4 0 -8 -51 -8 -114 0 -118 -8 -144 -44 -130 -13 5 -16 31 -18 177 l -3 170 -30 18 c -16 10 -38 18 -47 18 -10 1 -18 6 -18 11 0 6 -9 10 -20 10 -11 0 -20 5 -20 10 0 6 -9 10 -20 10 -20 0 -20 -7 -20 -284 0 -156 -3 -291 -6 -300 -8 -20 -21 -20 -40 -2 -11 11 -14 67 -16 282 l -3 269 -70 38 c -105 57 -112 58 -120 5 -8 -55 1 -1411 10 -1500 4 -38 11 -68 16 -68 5 0 9 -16 9 -35 0 -19 4 -43 9 -53 5 -9 14 -35 20 -57 19 -64 61 -154 109 -237 41 -71 144 -198 172 -213 14 -8 36 -24 50 -37 29 -26 146 -88 167 -88 8 0 28 -9 44 -21 37 -26 37 -58 1 -112 -36 -54 -52 -92 -52 -122 0 -14 -4 -25 -10 -25 -6 0 -10 -40 -10 -100 0 -60 4 -100 10 -100 6 0 10 -18 10 -40 0 -22 5 -40 10 -40 6 0 10 -6 10 -13 0 -42 105 -196 154 -226 18 -11 41 -29 51 -41 10 -11 26 -20 37 -20 10 0 18 -3 18 -8 0 -8 36 -24 95 -42 22 -7 49 -16 60 -21 54 -21 226 -18 418 7 47 6 47 6 47 45 0 21 -4 39 -10 39 -5 0 -10 17 -10 39 0 51 -18 65 -72 56 -62 -10 -185 -9 -243 2 -121 24 -192 63 -280 152 l -49 51 46 0 c 26 0 50 -4 53 -10 3 -5 18 -10 33 -10 34 0 52 35 52 101 0 26 4 51 10 54 5 3 10 21 10 40 0 46 46 85 100 85 21 0 42 -4 45 -10 18 -29 55 17 55 66 0 13 4 26 10 29 5 3 10 19 10 35 0 16 4 32 10 35 5 3 10 19 10 36 0 16 5 29 10 29 6 0 10 13 10 29 0 17 5 33 10 36 6 3 10 19 10 35 0 16 4 32 10 35 14 9 13 58 -2 73 -7 7 -20 12 -30 12 -10 0 -18 5 -18 10 0 6 38 10 94 10 53 0 98 -4 101 -10 3 -5 15 -10 26 -10 10 0 19 -4 19 -10 0 -5 6 -10 14 -10 17 0 106 -89 106 -106 0 -18 43 -18 73 -2 78 44 207 205 207 259 0 10 5 21 10 24 5 3 10 20 10 37 0 31 14 83 33 125 5 12 24 29 41 37 32 15 69 51 99 96 10 14 33 45 51 70 19 25 35 53 35 63 1 9 6 17 11 17 6 0 10 9 10 20 0 11 4 20 8 20 4 0 13 21 21 48 7 26 17 56 21 67 23 53 39 300 21 318 -6 6 -11 30 -11 53 0 24 -4 46 -10 49 -6 3 -10 17 -10 30 0 26 -43 113 -92 183 -40 59 -129 152 -144 152 -6 0 -19 9 -29 20 -10 11 -26 20 -37 20 -10 0 -18 5 -18 10 0 6 -7 10 -16 10 -23 0 -44 25 -44 54 0 14 -4 26 -10 26 -5 0 -10 9 -10 20 0 11 -9 35 -20 55 -11 20 -20 40 -20 46 0 6 -13 30 -30 54 -16 24 -30 46 -30 50 0 8 -63 89 -72 93 -5 2 -8 44 -8 93 0 49 -3 89 -8 89 -7 0 -32 69 -32 90 0 5 6 10 12 10 26 0 239 113 257 136 18 23 25 24 124 24 117 0 130 7 125 62 l -3 33 -1005 2 -1005 3 -12 -26 z  m 942 -124 c -3 -5 -13 -10 -21 -10 -8 0 -14 -4 -14 -10 0 -5 -9 -10 -20 -10 -11 0 -20 -4 -20 -10 0 -5 -7 -10 -15 -10 -18 0 -85 41 -85 53 0 4 41 7 91 7 57 0 88 -4 84 -10 z  m 595 6 c 0 -6 -102 -56 -114 -56 -13 0 -76 43 -76 53 0 4 43 7 95 7 52 0 95 -2 95 -4 z  m -385 -136 c -2 -52 -9 -96 -15 -98 -13 -5 -14 -182 0 -182 15 0 12 -49 -4 -66 -13 -12 -22 -6 -70 44 -54 56 -56 58 -56 115 0 31 -4 65 -9 75 -5 9 -21 40 -35 69 l -27 52 23 13 c 103 57 184 93 190 83 4 -5 6 -53 3 -105 z  m -277 -125 c 7 -14 12 -34 12 -45 0 -16 -5 -18 -34 -13 -41 6 -66 -13 -66 -51 0 -18 12 -33 46 -55 25 -17 52 -31 60 -31 7 0 14 -4 14 -10 0 -5 6 -10 14 -10 17 0 106 -90 106 -107 0 -7 5 -13 10 -13 6 0 10 -27 10 -60 0 -33 -4 -60 -10 -60 -5 0 -10 -9 -10 -20 0 -11 -4 -20 -10 -20 -5 0 -10 7 -10 15 0 8 -6 25 -12 38 -41 72 -87 87 -127 41 -20 -23 -23 -35 -18 -73 6 -52 -1 -101 -14 -101 -5 0 -9 11 -9 25 0 25 -15 58 -37 82 -20 23 -77 16 -101 -12 -22 -26 -30 -75 -12 -75 6 0 10 -18 10 -40 0 -46 -19 -54 -44 -18 -18 26 -23 202 -6 213 6 3 10 15 10 26 0 25 13 48 74 128 l 49 64 -41 39 c -39 36 -42 43 -42 91 0 29 5 58 12 65 7 7 42 12 88 12 73 0 77 -1 88 -25 z  m 552 -5 c 0 -16 5 -30 10 -30 6 0 10 -9 10 -20 0 -17 -7 -20 -40 -20 -39 0 -40 -1 -40 -34 0 -27 7 -39 34 -60 19 -14 38 -26 43 -26 11 -1 86 -71 80 -76 -2 -3 -15 -1 -28 5 -57 22 -134 33 -162 22 -38 -15 -67 -14 -67 2 1 6 14 28 30 47 37 43 37 52 0 83 -27 23 -30 32 -30 81 l 0 56 80 0 80 0 0 -30 z  m 245 -660 c 3 -5 22 -10 40 -10 63 0 169 -72 209 -142 l 19 -33 -24 22 c -29 25 -93 53 -123 53 -12 0 -27 5 -33 11 -7 7 -27 9 -50 6 -21 -4 -56 -9 -78 -12 -69 -11 -85 -23 -85 -67 l 0 -38 109 0 c 63 0 112 -4 116 -10 3 -5 16 -10 28 -10 12 0 40 -11 62 -25 22 -13 49 -29 61 -34 11 -5 40 -31 62 -57 l 42 -47 0 -128 c 0 -79 -4 -129 -10 -129 -5 0 -10 -11 -10 -25 0 -14 -4 -34 -10 -45 -5 -11 -14 -29 -20 -40 -5 -11 -10 -27 -10 -35 0 -8 -4 -15 -10 -15 -5 0 -10 -6 -10 -12 0 -7 -11 -26 -25 -42 -14 -16 -25 -32 -25 -36 0 -10 -103 -110 -113 -110 -4 0 -17 -9 -29 -20 -12 -11 -28 -20 -35 -20 -7 0 -13 -4 -13 -10 0 -5 -9 -10 -20 -10 -11 0 -20 -4 -20 -10 0 -5 -7 -10 -15 -10 -34 0 -65 -23 -65 -50 0 -36 17 -50 62 -50 33 0 37 -2 29 -17 -5 -10 -15 -33 -21 -50 -15 -41 -30 -41 -103 -3 -32 17 -69 30 -83 30 -13 0 -24 5 -24 11 0 7 -47 9 -142 6 -151 -5 -218 -14 -218 -28 0 -5 -11 -9 -24 -9 -14 0 -28 -5 -31 -10 -3 -5 -15 -10 -26 -10 -10 0 -19 -4 -19 -10 0 -5 -9 -10 -20 -10 -11 0 -20 -4 -20 -10 0 -5 -9 -10 -20 -10 -11 0 -20 -4 -20 -10 0 -5 -9 -10 -20 -10 -11 0 -20 -4 -20 -8 0 -5 -12 -15 -27 -23 -15 -8 -53 -30 -83 -50 -96 -63 -138 -79 -207 -79 -35 0 -63 4 -63 10 0 6 -9 10 -20 10 -23 0 -160 125 -160 146 0 8 -4 14 -10 14 -5 0 -10 18 -10 40 0 22 -4 40 -10 40 -13 0 -13 87 0 95 25 15 8 55 -45 110 -32 32 -58 69 -62 86 -3 16 -9 29 -14 29 -5 0 -9 14 -9 30 0 17 -5 39 -12 50 -14 22 1 75 33 122 12 16 19 43 19 72 0 26 7 59 17 74 19 31 134 152 145 152 3 0 30 14 58 32 50 31 53 32 66 13 8 -10 14 -34 14 -52 0 -18 5 -33 10 -33 6 0 10 -6 10 -13 0 -18 24 -67 33 -67 4 0 7 -9 7 -19 0 -11 6 -21 13 -24 44 -14 -139 -197 -198 -197 -8 0 -15 -9 -15 -20 0 -11 5 -20 10 -20 6 0 10 -9 10 -20 0 -11 5 -20 10 -20 6 0 10 -8 10 -18 0 -30 21 -42 72 -42 26 0 48 -4 48 -10 0 -5 8 -10 18 -11 9 -1 37 -23 61 -50 l 44 -49 -30 -12 c -40 -15 -57 -42 -42 -66 12 -18 73 -42 109 -42 28 0 100 -23 100 -32 0 -5 9 -8 20 -8 11 0 20 7 20 15 0 9 4 21 10 28 5 7 21 27 36 45 14 17 31 32 37 32 7 0 23 9 37 20 20 16 41 20 103 20 86 0 101 -6 170 -68 30 -27 54 -42 63 -38 9 3 22 6 30 6 10 0 14 13 14 48 0 37 -7 56 -34 93 -36 49 -117 99 -160 99 -14 0 -28 5 -31 10 -3 6 -26 10 -51 10 -42 0 -44 1 -44 30 0 27 -3 30 -34 30 -28 0 -107 -31 -126 -50 -3 -3 -18 -16 -33 -29 l -27 -25 -30 29 c -23 22 -30 38 -30 67 0 32 7 46 43 81 23 23 53 47 67 53 116 54 140 67 163 94 15 16 27 37 27 45 0 8 3 15 8 15 12 0 32 52 32 86 0 18 5 36 11 40 10 6 9 24 -7 115 -6 34 -3 38 62 97 38 34 74 62 81 62 7 0 13 4 13 9 0 10 125 73 190 95 25 9 59 16 75 16 17 0 37 5 45 10 20 13 147 13 155 0 z  m -845 -200 c 0 -5 6 -10 13 -10 25 0 107 -103 107 -135 0 -3 -27 -5 -60 -5 -71 0 -103 -17 -127 -67 -12 -26 -14 -40 -6 -52 15 -24 59 -25 89 -2 38 30 64 28 64 -5 0 -29 -14 -45 -63 -73 -31 -17 -39 -18 -71 -7 -47 16 -126 93 -126 122 0 12 -5 24 -11 26 -16 5 -16 137 -1 165 7 12 24 28 40 36 31 17 152 22 152 7 z  m -10 -1380 c -17 -28 -30 -60 -30 -70 0 -11 -4 -20 -10 -20 -5 0 -10 -13 -10 -30 0 -24 -4 -30 -22 -30 -25 0 -58 27 -58 47 0 7 -4 13 -10 13 -5 0 -10 13 -10 29 0 25 8 32 78 69 42 22 83 40 89 41 7 1 0 -20 -17 -49 z  m 250 -10 c 0 -11 -4 -20 -10 -20 -5 0 -10 -13 -10 -30 0 -16 -4 -30 -10 -30 -5 0 -10 -10 -10 -22 -1 -33 -23 -58 -54 -58 -25 0 -26 3 -26 50 0 28 4 50 9 50 5 0 11 9 14 19 5 20 62 61 85 61 6 0 12 -9 12 -20 z  m -300 -270 c 0 -26 -4 -30 -26 -30 -30 0 -53 -24 -54 -55 0 -29 19 -45 52 -45 26 0 28 -3 28 -40 0 -37 -2 -40 -29 -40 -61 0 -145 93 -122 138 5 9 15 30 22 45 15 33 52 54 97 56 29 1 32 -2 32 -29 z "></path><path id="pfMofWsuw" d="M3375.554798779395 3032.9958419235913 C 3375.554798779395 3080.477523930419 3337.0632902873772 3118.969032422437 3289.5816082805493 3118.969032422437 3242.0999262737214 3118.969032422437 3203.6084177817036 3080.477523930419 3203.6084177817036 3032.9958419235913 3203.6084177817036 2985.5141599167637 3242.0999262737214 2947.0226514247456 3289.5816082805493 2947.0226514247456 3337.0632902873772 2947.0226514247456 3375.554798779395 2985.5141599167637 3375.554798779395 3032.9958419235913 Z M3221.0 3076.0 "></path><path id="pqqF7Xz4C" d="M 1925 3103 c -32 -8 -105 -84 -105 -111 0 -27 31 -64 38 -44 2 6 11 12 19 12 9 0 35 20 59 44 46 45 58 88 28 100 -9 3 -16 5 -17 5 -1 -1 -11 -3 -22 -6 z "></path><path id="pdPWsthSo" d="M 2872 1900 c -6 -11 -12 -24 -12 -30 0 -16 62 -50 92 -50 15 0 30 -4 33 -10 3 -5 24 -10 46 -10 45 0 48 -8 16 -38 -19 -18 -35 -22 -85 -22 -57 0 -65 3 -102 36 -22 20 -40 41 -40 46 0 5 -7 16 -15 24 -13 13 -17 13 -27 2 -30 -32 -38 -62 -38 -139 0 -65 4 -89 23 -123 30 -56 41 -66 71 -66 19 0 26 5 26 20 0 14 7 20 23 20 30 0 106 -37 113 -54 3 -8 -25 -44 -66 -84 -69 -70 -70 -71 -53 -92 17 -20 121 -77 126 -69 1 2 10 14 20 26 17 20 18 23 2 47 -16 25 -16 28 40 143 31 65 65 135 76 156 10 22 19 45 19 53 0 8 3 14 8 14 7 0 17 21 42 90 7 19 17 39 22 45 13 15 9 25 -11 25 -11 0 -23 5 -26 10 -3 6 -22 10 -41 10 -19 0 -34 5 -34 10 0 6 -20 10 -44 10 -25 0 -48 5 -51 10 -3 6 -36 10 -73 10 -56 0 -69 -3 -80 -20 z "></path><path id="pXQO4PbxL" d="M 1880 1640 c 0 -11 -4 -20 -10 -20 -5 0 -10 -11 -10 -24 0 -14 -4 -28 -10 -31 -5 -3 -10 -19 -10 -35 0 -15 -5 -30 -12 -32 -16 -6 -16 -370 0 -376 7 -2 12 -13 12 -25 0 -23 19 -83 33 -104 14 -21 42 -15 72 17 30 31 55 39 55 17 0 -18 -24 -67 -32 -67 -5 0 -8 -9 -8 -20 0 -11 -4 -20 -10 -20 -5 0 -10 -17 -10 -38 0 -33 8 -45 74 -111 49 -49 80 -72 92 -69 12 2 33 31 58 81 21 42 43 77 47 77 12 0 11 -44 0 -55 -15 -16 -17 -163 -3 -177 17 -17 46 2 50 33 2 13 7 29 11 34 4 6 14 29 21 53 7 24 18 46 23 49 8 5 5 -136 -4 -181 -5 -23 43 -54 87 -55 16 -1 35 -6 42 -13 16 -16 408 -16 424 0 7 7 27 12 44 12 18 0 36 5 39 10 3 6 17 10 30 10 13 0 27 5 30 10 3 6 14 10 23 10 9 0 26 7 37 15 18 15 17 17 -31 68 -64 67 -107 124 -125 165 -7 17 -17 32 -21 32 -5 0 -8 9 -8 20 0 15 -7 20 -29 20 -17 0 -33 -4 -36 -10 -3 -5 -21 -10 -39 -10 -17 0 -37 -5 -42 -10 -14 -14 -308 -14 -312 0 -2 5 -17 10 -32 10 -16 0 -32 5 -35 10 -3 6 -17 10 -31 10 -13 0 -24 3 -24 8 0 4 -15 13 -32 21 -18 8 -47 26 -65 40 -17 14 -50 41 -72 59 -63 51 -151 178 -151 219 0 7 -4 13 -10 13 -5 0 -10 13 -10 29 0 16 -5 31 -12 33 -8 3 -12 48 -12 149 -1 147 -6 169 -40 169 -9 0 -16 -8 -16 -20 z "></path><path id="p7Penl0hf" d="M 2680 1510 c 0 -5 -9 -10 -20 -10 -17 0 -20 -7 -20 -40 0 -39 -1 -40 -34 -40 -25 0 -38 -6 -51 -26 -17 -26 -16 -27 8 -52 24 -24 29 -25 65 -14 22 7 68 12 104 12 92 0 117 35 58 81 -16 13 -30 32 -30 41 0 9 -13 26 -29 37 -32 23 -51 27 -51 11 z "></path></g></g></svg>
